<svg width="59" height="59" viewBox="0 0 59 59" fill="none" xmlns="http://www.w3.org/2000/svg">
<rect x="0.5" y="0.5" width="58" height="58" stroke="black"/>
<path d="M11.1835 27V12.216H5.72347V8.744H20.7875V12.216H15.3275V27H11.1835Z" fill="black"/>
<path d="M39.3155 27V8.744H44.3555C45.6808 8.744 46.8848 8.92133 47.9675 9.276C49.0501 9.63067 49.9741 10.1813 50.7395 10.928C51.5048 11.656 52.0928 12.5893 52.5035 13.728C52.9328 14.8667 53.1475 16.22 53.1475 17.788C53.1475 19.356 52.9421 20.7187 52.5315 21.876C52.1208 23.0333 51.5328 23.9947 50.7675 24.76C50.0208 25.5067 49.1248 26.0667 48.0795 26.44C47.0341 26.8133 45.8768 27 44.6075 27H39.3155ZM43.4595 23.668H44.1315C44.8408 23.668 45.4848 23.5653 46.0635 23.36C46.6608 23.1547 47.1648 22.828 47.5755 22.38C48.0048 21.9133 48.3315 21.3067 48.5555 20.56C48.7981 19.8133 48.9195 18.8893 48.9195 17.788C48.9195 16.7053 48.7981 15.8 48.5555 15.072C48.3315 14.3253 48.0048 13.7373 47.5755 13.308C47.1648 12.86 46.6608 12.5427 46.0635 12.356C45.4848 12.1693 44.8408 12.076 44.1315 12.076H43.4595V23.668Z" fill="black"/>
<path d="M7.65347 52.5L5.21747 34.244H9.50147L10.0615 43.96C10.0801 44.744 10.0895 45.5 10.0895 46.228C10.1081 46.9373 10.1268 47.712 10.1455 48.552H10.2575C10.3881 47.712 10.5281 46.9373 10.6775 46.228C10.8455 45.5 11.0041 44.744 11.1535 43.96L12.3855 38.864H15.0175L16.1655 43.96C16.3148 44.7253 16.4641 45.472 16.6135 46.2C16.7628 46.928 16.9121 47.712 17.0615 48.552H17.1735C17.1921 47.712 17.2015 46.928 17.2015 46.2C17.2201 45.472 17.2481 44.7253 17.2855 43.96L17.7895 34.244H21.7935L19.5535 52.5H15.1295L14.0655 46.844C13.9535 46.2653 13.8508 45.6773 13.7575 45.08C13.6641 44.4827 13.5988 43.9133 13.5615 43.372H13.4775C13.4215 43.9133 13.3561 44.4827 13.2815 45.08C13.2068 45.6773 13.1135 46.2653 13.0015 46.844L11.9375 52.5H7.65347Z" fill="black"/>
<path d="M40.1015 52.5V34.244H44.2175V49.028H52.3375V52.5H40.1015Z" fill="black"/>
</svg>
