<?xml version="1.0" standalone="no"?>
<!DOCTYPE svg PUBLIC "-//W3C//DTD SVG 20010904//EN"
 "http://www.w3.org/TR/2001/REC-SVG-20010904/DTD/svg10.dtd">
<svg version="1.0" xmlns="http://www.w3.org/2000/svg"
 width="700.000000pt" height="700.000000pt" viewBox="0 0 700.000000 700.000000"
 preserveAspectRatio="xMidYMid meet">
<metadata>
Created by potrace 1.14, written by Peter Selinger 2001-2017
</metadata>
<g transform="translate(0.000000,700.000000) scale(0.100000,-0.100000)"
fill="#000000" stroke="none">
<path d="M0 3500 l0 -3500 3500 0 3500 0 0 3500 0 3500 -3500 0 -3500 0 0
-3500z m6880 3338 c3 -432 0 -6712 -3 -6715 -3 -3 -5953 -6 -6679 -3 l-78 0 0
3380 0 3380 3380 0 3380 0 0 -42z"/>
<path d="M690 5960 c-9 -6 -12 -75 -11 -277 l1 -133 323 0 323 0 0 -875 c-1
-575 2 -876 9 -878 9 -2 439 -1 473 2 9 1 12 183 12 876 l0 875 323 0 324 0
-1 205 c0 177 -2 205 -16 206 -69 4 -1754 3 -1760 -1z"/>
<path d="M4683 5960 c-18 -5 -18 -47 -18 -1075 0 -588 3 -1074 7 -1080 7 -11
663 -12 768 -1 197 21 378 90 510 194 225 178 347 468 354 845 3 133 -14 343
-29 368 -2 3 -7 21 -10 39 -18 104 -100 279 -173 373 -118 151 -313 267 -517
307 -85 18 -82 17 -175 25 -96 9 -689 13 -717 5z m739 -415 c256 -67 381 -282
380 -655 -1 -386 -127 -606 -387 -677 -27 -7 -96 -16 -152 -19 l-103 -7 -1 24
c-3 68 -4 1345 -1 1352 6 12 200 -1 264 -18z"/>
<path d="M625 2930 c-3 -5 4 -71 14 -147 11 -76 23 -165 27 -198 5 -33 9 -62
9 -65 1 -3 5 -36 10 -75 4 -38 9 -77 10 -85 3 -14 10 -65 19 -145 6 -44 46
-335 51 -370 2 -16 12 -86 20 -155 9 -69 18 -136 20 -150 5 -29 23 -168 30
-225 3 -22 7 -53 9 -70 3 -16 10 -68 16 -115 6 -47 13 -96 15 -110 2 -14 9
-65 15 -115 6 -49 13 -100 16 -112 l4 -23 255 0 c236 0 255 1 256 18 0 9 2 24
4 32 3 14 10 50 20 110 3 14 7 36 10 50 3 14 8 41 11 60 7 36 11 55 18 89 2
10 7 34 10 52 3 19 8 45 11 59 2 14 7 36 10 50 2 14 7 41 10 60 3 19 8 42 10
50 2 8 7 31 10 50 3 19 10 60 15 90 5 30 11 78 14 105 4 28 9 70 12 95 3 25 7
58 8 73 5 40 16 46 17 9 1 -18 2 -35 3 -39 1 -5 6 -39 11 -78 5 -38 9 -72 10
-75 1 -3 5 -25 9 -50 9 -54 24 -132 71 -380 19 -102 36 -194 38 -205 2 -11 12
-66 22 -122 l19 -103 262 0 262 0 6 37 c3 21 8 58 11 83 3 25 7 61 10 80 4 34
8 69 20 175 3 28 8 61 10 75 2 14 7 50 10 80 3 30 7 66 10 80 2 14 7 48 10 75
9 82 14 128 20 165 2 19 7 60 10 90 3 30 8 66 10 80 2 14 7 50 10 80 3 30 8
66 10 80 2 14 7 50 10 80 3 30 10 87 15 125 10 78 21 167 25 205 2 24 12 105
20 160 2 14 9 68 15 120 6 52 13 109 15 125 2 17 7 62 11 101 l6 71 -236 0
-236 1 -1 -37 c0 -20 -2 -49 -3 -66 -2 -16 -6 -97 -10 -180 -4 -82 -9 -175
-11 -205 -2 -30 -7 -116 -10 -190 -4 -74 -8 -166 -10 -205 -2 -38 -7 -131 -10
-205 -4 -74 -8 -164 -10 -200 -2 -36 -4 -143 -5 -237 -1 -95 -5 -173 -9 -173
-5 0 -35 138 -57 269 -2 7 -7 34 -13 60 -6 25 -17 82 -25 126 -9 44 -17 89
-20 100 -3 11 -11 49 -19 85 -8 36 -36 157 -62 270 -25 113 -48 212 -49 220
-2 12 -30 15 -159 18 -142 2 -156 1 -161 -15 -6 -20 -89 -361 -106 -439 -7
-27 -13 -56 -15 -64 -10 -40 -47 -208 -51 -228 -3 -13 -15 -74 -28 -135 -13
-62 -29 -147 -36 -189 -14 -88 -27 -102 -27 -30 -1 85 -14 606 -18 657 -2 28
-6 97 -9 155 -9 160 -17 289 -21 350 -2 30 -7 116 -11 190 -4 74 -8 151 -9
170 -2 19 -4 56 -4 81 l-1 46 -250 1 c-137 0 -252 -3 -255 -8z"/>
<path d="M4759 2916 c-1 -28 -1 -2072 0 -2113 l1 -33 725 0 725 0 0 204 c0
154 -3 205 -12 208 -7 2 -221 3 -476 2 -316 0 -465 3 -469 10 -4 6 -7 400 -7
876 l-1 865 -242 1 c-241 1 -243 1 -244 -20z"/>
</g>
</svg>
